<?xml version="1.0" encoding="utf-8"?>
<!-- Generator: Adobe Illustrator 21.1.0, SVG Export Plug-In . SVG Version: 6.00 Build 0)  -->
<svg version="1.1" id="Layer_1" xmlns="http://www.w3.org/2000/svg" xmlns:xlink="http://www.w3.org/1999/xlink" x="0px" y="0px"
	 viewBox="0 0 500 124" style="enable-background:new 0 0 500 124;" xml:space="preserve">
<style type="text/css">
	.st0{fill:#0152D4;}
</style>
<title>bluekiri</title>
<desc>Created with Sketch.</desc>
<path id="Combined-Shape-Copy" class="st0" d="M157.8,73.9c0-9.9-6.3-16.4-14.9-16.5c-7.7,0-13.5,5.2-14.7,13.4V77
	c1.2,8.2,7,13.4,14.7,13.4C151.9,90.4,157.8,83.9,157.8,73.9z M110.9,11.4h17.5l-0.1,32.9c5.4-1.7,11.3-2.7,16.2-2.7
	c1.3,0,2.6,0,3.8,0.2c14.8,1.1,26.3,14.1,27.5,29.1c0.2,1.7,0.2,3.5,0.1,5.2c-0.9,15.8-12.4,29-27.6,30c-2.1,0.1-4,0.1-5.9,0.1
	c-8.6-0.5-15-3.1-19.9-6.7c-0.4,1.2-0.4,4.8-0.4,5.7h-11.2V11.4z M204.3,105.2c2-2.2,5.5-14.4,3.6-16.7c-2.6-0.1-9-0.8-10.3-6.4
	c-0.8-2.1-1.3-4.8-1.3-8.3l-0.3-61.1h-17.5l0.2,61.5c0,2,0.1,3.8,0.1,5.7C179.4,95.3,186.8,104.8,204.3,105.2z M227.7,42.5h-17.6
	v36.6c0,17,11.5,27,29.9,27.2c17.1,0,28.5-9.3,29.6-23.8c0.2-2,0.2-3.9,0.2-6.1l0.1-33.9h-17.6v28.6c0,3.1-0.1,6-0.2,8.7
	c-0.5,7.2-4.6,11-12.1,11s-11.5-3.8-12.2-11c-0.1-2.7-0.2-5.7-0.1-8.7V42.5z M291.3,67h26.5c-0.5-5.7-5.8-11.7-13.5-11.7
	C297.1,55.3,292.4,60.4,291.3,67z M319.5,85.4l14.6,3.3c-3.6,8.3-12,17.7-28.8,17.7c-16.1,0-32.3-12.4-32.3-32.4
	c0-19.3,15.1-32.4,31.1-32.4c20.2,0,31.1,14.3,31.1,37.4H291c1.1,6.9,7.1,11.8,14.1,12.4C310.7,91.9,316.3,89.6,319.5,85.4z
	 M402.6,42.5l-29.1,30.5l32.5,32.2h-23.5l-24.9-24.6v24.6h-17.6V10.6h17.6v54.7L379,42.5H402.6z M405.5,105.2v-63h17.7v63H405.5z
	 M447.6,42.3H430v62.9h17.6V72.6c0-4.8,2.3-13,10.9-14.2c3.9-0.7,7.4-0.1,10.4,0.4c1.5,0.2,2.8,0.4,3.9,0.4l4.6-15.9
	c-1.1,0-3.7-1.1-7.8-1.7c-1.5-0.1-3.3-0.2-5.2-0.2c-7.4,0.3-14.5,4.6-16.7,8.4V42.3z M482.2,105.2v-63h17.7v63H482.2z M414.2,36.7
	c-4.6,0-8.3-3.7-8.3-8.3s3.7-8.3,8.3-8.3c4.6,0,8.3,3.7,8.3,8.3S418.8,36.7,414.2,36.7z M491.2,36.7c-4.6,0-8.3-3.7-8.3-8.3
	s3.7-8.3,8.3-8.3s8.3,3.7,8.3,8.3S495.7,36.7,491.2,36.7z"/>
<path class="st0" d="M88.7,72.6c-1.7-3-3.1-3.8-7.4-4C78,68.3,77,68,74.9,66.6c-5.9-3.9-6.9-4-11.7-1.7c-3,1.4-3.4,1.8-4.5,4.3
	c-0.9,1.9-1.4,4.2-1.7,7.7c-0.6,7.4-2.5,11-5.4,10.7c-2.3-0.3-2.8-2-2.8-10.5c0-6.3,0.1-7.8,0.9-9.8c1.3-3.2,5.1-7.2,8.1-8.6
	c2.2-1,2.9-1.1,8.6-0.8c3.4,0.2,6.8,0.6,7.5,0.9c0.8,0.3,2.6,0.6,4.2,0.6c2.5,0.1,3.1-0.1,5.1-1.6c1.4-1,2.7-2.5,3.2-3.7
	c0.9-1.9,0.8-2.1,0-4c-0.9-2-0.9-2,0.4-4.8c2.1-4.3,1.7-7-1.5-10c-1.2-1.1-2-1.4-4.7-1.5c-2.4-0.2-4.2-0.7-6.7-1.9
	c-4.7-2.3-6.7-2.5-9.7-1c-1.3,0.6-2.9,1.8-3.5,2.5c-1.4,1.6-2.5,5.5-3.2,11.1c-0.6,5.1-1.9,8.1-4.7,10.4c-3.7,3.2-4.4,2.4-4.4-5.4
	c0-10.9,2.3-16.1,8.9-20.5c3.1-2,7.6-6.8,8.4-8.8c1.7-4.5-2.5-11.6-7.8-12.9c-0.8-0.2-2.4-1.6-3.8-3.2c-3.5-4.1-5.3-4.9-9.2-3.8
	c-1.9,0.5-4,2.3-6.2,5.1C38,6.5,36,8,34.4,8.8c-3.9,2-5.2,4-5.2,7.9c0,2.7,0.2,3.3,2.5,6.7c1.5,2.3,3.4,4.3,4.7,5.2
	c2.7,1.8,6,5.4,6.8,7.5c0.7,1.8,0.8,15,0.3,18.3c-0.3,1.7-0.6,2.1-1.8,2.2c-1,0.1-1.9-0.2-3-1.3c-2.5-2.3-3.4-4.9-3.4-9.7
	c0-4.8-1.1-10.3-2.5-12.6c-1.2-2-4.6-4.2-7.1-4.6c-1.5-0.2-2.6,0.1-5,1.3c-2.1,1.1-3.8,1.6-5.3,1.6c-3.5,0-7.6,1.8-9.1,4
	c-1.6,2.3-1.7,5.8-0.3,8.9c0.7,1.6,1,3.2,0.9,6.1c-0.1,4.6,0.7,6,4.2,7.8c2.4,1.2,4,1.2,16.3,0.3c5.1-0.4,8.7,0.9,11.7,4.1
	c2.8,3,3.3,4.9,3.2,13.8c0,10.9-0.9,13.4-4.3,11.6c-3.8-2.1-5.6-6.1-4.8-11c0.8-5.2,0.7-6.8-0.8-8.6c-2.8-3.4-8.4-4.5-12.3-2.5
	c-2.5,1.3-3.3,1.3-6.9-0.1c-2.8-1.1-2.9-1.1-5.8-0.2c-2.2,0.7-3.5,1.4-5,3.1C0,71.5-0.4,73,0.6,76c1,2.8,1,5,0.1,6.6
	c-1,1.8-0.9,5.5,0.2,7.4c1.4,2.3,4,4.1,6.4,4.5c3,0.4,12.2-1.1,13.6-2.3c0.3-0.3,2.8-0.5,5.6-0.6c5.5-0.1,7.1,0.4,11.7,3.9
	c2.1,1.6,5.3,2.5,5.3,6.8c0,0.1,0,0.1,0,0.2v4.7c-3.3,1.1-5.6,4.2-5.6,7.8c0,4.5,3.7,8.2,8.2,8.2c4.5,0,8.2-3.7,8.2-8.2
	c0-3.6-2.4-6.7-5.6-7.8v-5.2c0.2-2.5,3.4-5.7,3.8-6c3.4-2.8,4.2-3.1,8.4-3.1c3.7,0,4.4,0.2,7.8,2c3.2,1.6,4.3,2,7.1,2
	c4.5,0.1,7.9-1,10-3.1c2-2.1,2.5-4.3,1.7-7.5c-0.6-2.3-0.5-2.6,1-5.6C90,77,90.2,75.1,88.7,72.6z M49.7,115c0,2-1.6,3.7-3.7,3.7
	s-3.7-1.7-3.7-3.7s1.6-3.7,3.7-3.7S49.7,113,49.7,115z"/>
</svg>
